<svg xmlns="http://www.w3.org/2000/svg" viewBox="0 0 637.62 101.03"><defs><style>.cls-1{fill:#039748;}.cls-2{fill:#fff;}</style></defs><g id="Layer_2" data-name="Layer 2"><g id="Layer_1-2" data-name="Layer 1"><path class="cls-1" d="M24.17,101l-7.8-4.56A31,31,0,0,1,4.29,83.53,42,42,0,0,1,0,64.13V37A42,42,0,0,1,4.29,17.56a31.21,31.21,0,0,1,12.08-13A34.87,34.87,0,0,1,34.45,0,34,34,0,0,1,50.11,3.64,33.05,33.05,0,0,1,62.05,14a38.65,38.65,0,0,1,6.5,15.45H54.33A22.17,22.17,0,0,0,50,21.14a21.22,21.22,0,0,0-7.11-5.62,19.26,19.26,0,0,0-8.44-2,19.16,19.16,0,0,0-10.62,2.93,19.41,19.41,0,0,0-7.08,8.2A28.22,28.22,0,0,0,14.23,37V64.13a28.25,28.25,0,0,0,2.52,12.25,18.68,18.68,0,0,0,17.7,11.1,20.19,20.19,0,0,0,8.47-1.84A19.93,19.93,0,0,0,50,80.2a21.76,21.76,0,0,0,4.33-8.58H68.55A38.41,38.41,0,0,1,62,87.07,33.34,33.34,0,0,1,50,97.39,33.85,33.85,0,0,1,34.45,101Z"/><path class="cls-1" d="M78.09,1H93.2L117,78.63,140.72,1h15.11l-32.27,99H110.35Z"/><path class="cls-2" d="M170.81,1H184.7v99H170.81ZM178,48.4h31.65a14.65,14.65,0,0,0,7.9-2.11,14,14,0,0,0,5.28-6,20.38,20.38,0,0,0,1.87-8.92,20.56,20.56,0,0,0-1.87-9,14.26,14.26,0,0,0-5.28-6,14.49,14.49,0,0,0-7.9-2.14H178V1h31.18A31.35,31.35,0,0,1,224.73,4.8a26.33,26.33,0,0,1,10.45,10.65,33.1,33.1,0,0,1,3.71,15.93,32.87,32.87,0,0,1-3.71,15.9,26.18,26.18,0,0,1-10.45,10.59,31.65,31.65,0,0,1-15.59,3.74H178Z"/><path class="cls-2" d="M252.84,29.34h13.89V100H252.84Zm34.25,13.35a16.64,16.64,0,0,0-6.47-1.16q-6.6,0-10.25,3.64t-3.64,10.11L265.3,41.67a25.91,25.91,0,0,1,8.44-9.84,19.93,19.93,0,0,1,11.44-3.51,26,26,0,0,1,8.75,1.4,19.6,19.6,0,0,1,6.84,4.11l-9,12.26A11.62,11.62,0,0,0,287.09,42.69Z"/><path class="cls-2" d="M322.35,97.42a23.73,23.73,0,0,1-10-10.52,37,37,0,0,1-3.44-16.64V58.75a36.28,36.28,0,0,1,3.44-16.44,23.63,23.63,0,0,1,10-10.41,36.33,36.33,0,0,1,31.45,0,23.7,23.7,0,0,1,10,10.41,36.28,36.28,0,0,1,3.43,16.44V70.46q0,9.67-3.43,16.51a23.9,23.9,0,0,1-10,10.45,36.05,36.05,0,0,1-31.45,0Zm27-14.16q4-4.56,4-12.8V58.75q0-8.23-4-12.73t-11.26-4.49q-7.29,0-11.27,4.49t-4,12.73V70.46q0,8.24,4,12.8t11.27,4.56Q345.36,87.82,349.34,83.26Z"/><path class="cls-2" d="M381.85,85.44h14.57V100H381.85Z"/><path class="cls-1" d="M400.17,1H470V14.23H400.17Zm28,8.1H442V100H428.15Z"/><path class="cls-1" d="M495.41,96.5a30.86,30.86,0,0,1-12.22-12.8,40.67,40.67,0,0,1-4.33-19.16V36.49a40.67,40.67,0,0,1,4.33-19.16,30.86,30.86,0,0,1,12.22-12.8,39,39,0,0,1,36.49,0,31,31,0,0,1,12.22,12.8,40.79,40.79,0,0,1,4.32,19.16V64.54a40.79,40.79,0,0,1-4.32,19.16A31,31,0,0,1,531.9,96.5a39,39,0,0,1-36.49,0Zm29-11.91a18.56,18.56,0,0,0,7.22-7.83A25.82,25.82,0,0,0,534.21,65V36a25.82,25.82,0,0,0-2.55-11.74,18.56,18.56,0,0,0-7.22-7.83,22.47,22.47,0,0,0-21.58,0,18.54,18.54,0,0,0-7.21,7.83A25.69,25.69,0,0,0,493.09,36V65a25.69,25.69,0,0,0,2.56,11.74,18.54,18.54,0,0,0,7.21,7.83,22.47,22.47,0,0,0,21.58,0Z"/><path class="cls-1" d="M569.54,1h13.89v99H569.54Zm7.15,47.38h31.66a14.67,14.67,0,0,0,7.9-2.11,14,14,0,0,0,5.27-6,20.24,20.24,0,0,0,1.87-8.92,20.42,20.42,0,0,0-1.87-9,14.31,14.31,0,0,0-5.27-6,14.52,14.52,0,0,0-7.9-2.14H576.69V1h31.18A31.32,31.32,0,0,1,623.46,4.8a26.2,26.2,0,0,1,10.45,10.65,33,33,0,0,1,3.71,15.93,32.76,32.76,0,0,1-3.71,15.9,26.06,26.06,0,0,1-10.45,10.59,31.63,31.63,0,0,1-15.59,3.74H576.69Z"/></g></g></svg>