<svg xmlns="http://www.w3.org/2000/svg" viewBox="0 0 823.51 56.2"><defs><style>.cls-1{fill:#069747;}.cls-2{fill:#fff;}</style></defs><g id="Layer_2" data-name="Layer 2"><g id="Layer_1-2" data-name="Layer 1"><path class="cls-1" d="M12.41,51.24a22.92,22.92,0,0,1-6.73-6.4,30.93,30.93,0,0,1-4.21-8.68A31.53,31.53,0,0,1,0,26.87a30.32,30.32,0,0,1,1.59-9.56A28.86,28.86,0,0,1,6.13,8.69a24.15,24.15,0,0,1,7.12-6.23A18.58,18.58,0,0,1,22.66.06H94.49A5.68,5.68,0,0,1,98.7,1.75,5.78,5.78,0,0,1,100.39,6a5.78,5.78,0,0,1-1.69,4.23,5.68,5.68,0,0,1-4.21,1.69H25.25A14.71,14.71,0,0,0,19.33,13,12,12,0,0,0,15,16.1a13.37,13.37,0,0,0-2.65,4.74,19.46,19.46,0,0,0-.9,6.06,21.57,21.57,0,0,0,.6,5.07,14.22,14.22,0,0,0,2.05,4.65,10.75,10.75,0,0,0,4.81,4.11,16.31,16.31,0,0,0,6.31,1.17H94.49a6,6,0,0,1,2.35.45,5.47,5.47,0,0,1,1.86,1.26,6.05,6.05,0,0,1,1.23,1.89,6.12,6.12,0,0,1,.46,2.35,5.76,5.76,0,0,1-5.9,5.89h-73A16.69,16.69,0,0,1,12.41,51.24Z"/><path class="cls-1" d="M102.07,8.24A5.92,5.92,0,0,1,101.59,6,5.74,5.74,0,0,1,107.48.06a5.51,5.51,0,0,1,4.69,2.28L140.9,40.7q.42.54,1,1.11a9.74,9.74,0,0,0,1.17,1,7.78,7.78,0,0,0,1.3.81,3.05,3.05,0,0,0,2.76,0,7.09,7.09,0,0,0,1.26-.81,10.09,10.09,0,0,0,1.12-1q.51-.57.93-1.11L179.31,2.22A5.81,5.81,0,0,1,183.88.06,5.74,5.74,0,0,1,189.77,6a5,5,0,0,1-1.2,3.55L158.63,49.83a17.59,17.59,0,0,1-5.77,4.66,15.79,15.79,0,0,1-19.59-4.3l-29.94-40A14.51,14.51,0,0,1,102.07,8.24Z"/><path class="cls-2" d="M198.85,11.45a5.76,5.76,0,0,1-1.9-1.27,6.26,6.26,0,0,1-1.29-1.9,5.64,5.64,0,0,1-.48-2.3,5.77,5.77,0,0,1,1.68-4.23A5.69,5.69,0,0,1,201.07.06h73.82a16.56,16.56,0,0,1,6.4,1.26,17.21,17.21,0,0,1,5.32,3.46,16.13,16.13,0,0,1,3.6,5.17,15.59,15.59,0,0,1,1.33,6.46,15.45,15.45,0,0,1-1.33,6.4,16.67,16.67,0,0,1-8.86,8.72,16.38,16.38,0,0,1-6.46,1.29H208.82a1.74,1.74,0,0,0-1.8,1.8V47.85a5.35,5.35,0,0,1-.48,2.25A6.38,6.38,0,0,1,205.25,52a6.14,6.14,0,0,1-1.9,1.29,5.55,5.55,0,0,1-2.28.48,5.84,5.84,0,0,1-5.89-5.89v-21a5.65,5.65,0,0,1,.45-2.25,5.82,5.82,0,0,1,1.26-1.87,5.74,5.74,0,0,1,1.9-1.26,5.87,5.87,0,0,1,2.28-.45h74.3a4.44,4.44,0,0,0,3.24-1.31,4.23,4.23,0,0,0,1.06-5,4.85,4.85,0,0,0-1.06-1.46,5,5,0,0,0-1.5-1,4.37,4.37,0,0,0-1.74-.36H201.13A5.87,5.87,0,0,1,198.85,11.45Z"/><path class="cls-2" d="M301.12,11.45a6.18,6.18,0,0,1-1.86-1.24A5.51,5.51,0,0,1,298,8.34a6,6,0,0,1-.45-2.3V5.92a6,6,0,0,1,.45-2.3,5.61,5.61,0,0,1,1.26-1.87A6.37,6.37,0,0,1,301.12.51a5.7,5.7,0,0,1,2.26-.45h73.87a16.58,16.58,0,0,1,6.41,1.26A17.21,17.21,0,0,1,389,4.78a16.13,16.13,0,0,1,3.6,5.17,15.75,15.75,0,0,1,1.33,6.46,15.74,15.74,0,0,1-1.3,6.34,16.32,16.32,0,0,1-3.54,5.2,17,17,0,0,1-5.23,3.52,16,16,0,0,1-6.4,1.29l13.1,10.46a5.46,5.46,0,0,1,2.1,4,5.36,5.36,0,0,1-1.32,4.33,5.66,5.66,0,0,1-4,2.16A5.81,5.81,0,0,1,383,52.36L358.56,32.82H309.39v15a5.35,5.35,0,0,1-.48,2.25A6.38,6.38,0,0,1,307.62,52a6.26,6.26,0,0,1-1.9,1.29,5.55,5.55,0,0,1-2.28.48,5.84,5.84,0,0,1-5.89-5.89V29.27a8,8,0,0,1,.66-3.21A8.55,8.55,0,0,1,300,23.41a8.41,8.41,0,0,1,2.62-1.77,8,8,0,0,1,3.24-.66h71.9A4.44,4.44,0,0,0,381,19.67a4.1,4.1,0,0,0,1.44-3.23,4,4,0,0,0-.39-1.73,4.66,4.66,0,0,0-1-1.46,5,5,0,0,0-1.5-1,4.37,4.37,0,0,0-1.74-.36H303.38A5.7,5.7,0,0,1,301.12,11.45Z"/><path class="cls-2" d="M396.31,26.87a30.32,30.32,0,0,1,1.59-9.56,28.86,28.86,0,0,1,4.54-8.62,24.15,24.15,0,0,1,7.12-6.23A18.56,18.56,0,0,1,419,.06h56.2a17.6,17.6,0,0,1,6.19,1.32,21,21,0,0,1,5.26,3.16,22.41,22.41,0,0,1,4.21,4.57A31.89,31.89,0,0,1,494,14.67a31.12,31.12,0,0,1,2,6.07,29.62,29.62,0,0,1,.66,6.13A30.22,30.22,0,0,1,495,36.46a29.35,29.35,0,0,1-4.54,8.62,24,24,0,0,1-7.12,6.26,18.56,18.56,0,0,1-9.41,2.4H417.77a17.94,17.94,0,0,1-9-2.77,24.73,24.73,0,0,1-6.76-6.34,29.09,29.09,0,0,1-4.27-8.47A30.74,30.74,0,0,1,396.31,26.87Zm11.48,0a21.57,21.57,0,0,0,.6,5.07,14.41,14.41,0,0,0,2,4.65,10.85,10.85,0,0,0,4.81,4.11,16.4,16.4,0,0,0,6.32,1.17h49.77a15.36,15.36,0,0,0,5.95-1.08,11.75,11.75,0,0,0,4.33-3.06A13.35,13.35,0,0,0,484.25,33a19.66,19.66,0,0,0,.9-6.12,19.66,19.66,0,0,0-.87-5.94,13.55,13.55,0,0,0-2.58-4.77A11.92,11.92,0,0,0,477.4,13a15,15,0,0,0-6.07-1.14H421.56A14.8,14.8,0,0,0,415.63,13a12,12,0,0,0-4.29,3.09,13.22,13.22,0,0,0-2.65,4.74A19.46,19.46,0,0,0,407.79,26.9Z"/><path class="cls-2" d="M508.57,47.9a7.38,7.38,0,0,1,.6-2.95,7.56,7.56,0,0,1,1.63-2.4,7.9,7.9,0,0,1,2.4-1.63,7.53,7.53,0,0,1,5.89,0,8.07,8.07,0,0,1,2.41,1.63,7.7,7.7,0,0,1,1.62,2.4,7.38,7.38,0,0,1,.6,2.95,7.29,7.29,0,0,1-.6,2.94,7.63,7.63,0,0,1-1.62,2.41,7.86,7.86,0,0,1-2.41,1.62,7.53,7.53,0,0,1-5.89,0,7.7,7.7,0,0,1-2.4-1.62,7.49,7.49,0,0,1-1.63-2.41A7.29,7.29,0,0,1,508.57,47.9Z"/><path class="cls-1" d="M523.14,6a5.93,5.93,0,0,1,1.71-4.18,6.39,6.39,0,0,1,1.9-1.29A5.55,5.55,0,0,1,529,0h27.65a5.58,5.58,0,0,1,4.15,1.71,5.77,5.77,0,0,1,1.68,4.18V6a5.65,5.65,0,0,1-1.68,4.15,5.63,5.63,0,0,1-4.15,1.68H529a5.71,5.71,0,0,1-4.18-1.71A5.7,5.7,0,0,1,523.14,6Zm42.08,5.77a11.28,11.28,0,0,1,.93-4.54,12.32,12.32,0,0,1,2.51-3.72A11.79,11.79,0,0,1,572.38.93,11.49,11.49,0,0,1,577,0h36.25a6,6,0,0,1,2.34.45,5.47,5.47,0,0,1,1.86,1.26,6,6,0,0,1,1.24,1.9A6,6,0,0,1,619.14,6a5.76,5.76,0,0,1-5.89,5.89H580.37a3.28,3.28,0,0,0-3.31,3.31v32.7a5.69,5.69,0,0,1-1.69,4.21,6.17,6.17,0,0,1-8.46,0,5.69,5.69,0,0,1-1.69-4.21Z"/><path class="cls-1" d="M620.88,26.87a30.32,30.32,0,0,1,1.59-9.56A29.09,29.09,0,0,1,627,8.69a24.19,24.19,0,0,1,7.13-6.23,18.52,18.52,0,0,1,9.4-2.4h56.21a17.7,17.7,0,0,1,6.19,1.32,21.38,21.38,0,0,1,5.26,3.16,23,23,0,0,1,4.21,4.57,31.85,31.85,0,0,1,3.12,5.56,31.12,31.12,0,0,1,2,6.07,29,29,0,0,1,.67,6.13,30.23,30.23,0,0,1-1.6,9.59A29.33,29.33,0,0,1,715,45.08a24,24,0,0,1-7.13,6.26,18.53,18.53,0,0,1-9.41,2.4H642.34a17.94,17.94,0,0,1-9-2.77,24.73,24.73,0,0,1-6.76-6.34,29.34,29.34,0,0,1-4.27-8.47A30.74,30.74,0,0,1,620.88,26.87Zm11.48,0A21.57,21.57,0,0,0,633,32a14.43,14.43,0,0,0,2,4.65,10.75,10.75,0,0,0,4.81,4.11,16.31,16.31,0,0,0,6.31,1.17H695.9a15.33,15.33,0,0,0,6-1.08,11.67,11.67,0,0,0,4.33-3.06A13.35,13.35,0,0,0,708.82,33a19.66,19.66,0,0,0,.91-6.12,19.66,19.66,0,0,0-.88-5.94,13.55,13.55,0,0,0-2.58-4.77A11.83,11.83,0,0,0,702,13a14.94,14.94,0,0,0-6.07-1.14H646.13A14.71,14.71,0,0,0,640.21,13a12,12,0,0,0-4.3,3.09,13.37,13.37,0,0,0-2.65,4.74A19.46,19.46,0,0,0,632.36,26.9Z"/><path class="cls-1" d="M730.82,11.45a5.82,5.82,0,0,1-1.89-1.27,6.26,6.26,0,0,1-1.29-1.9,5.64,5.64,0,0,1-.48-2.3,5.77,5.77,0,0,1,1.68-4.23A5.68,5.68,0,0,1,733.05.06h73.81a16.58,16.58,0,0,1,6.41,1.26,17,17,0,0,1,5.31,3.46A16,16,0,0,1,822.19,10a15.75,15.75,0,0,1,1.32,6.46,15.6,15.6,0,0,1-1.32,6.4,16.74,16.74,0,0,1-8.87,8.72,16.31,16.31,0,0,1-6.46,1.29H740.8a1.74,1.74,0,0,0-1.8,1.8V47.85a5.35,5.35,0,0,1-.48,2.25,6.2,6.2,0,0,1-3.19,3.16,5.55,5.55,0,0,1-2.28.48,5.84,5.84,0,0,1-5.89-5.89v-21a5.65,5.65,0,0,1,.45-2.25,5.84,5.84,0,0,1,3.15-3.13,5.88,5.88,0,0,1,2.29-.45h74.29a4.44,4.44,0,0,0,3.25-1.31A4.1,4.1,0,0,0,812,16.44a4,4,0,0,0-.39-1.73,4.66,4.66,0,0,0-1-1.46,5,5,0,0,0-1.5-1,4.42,4.42,0,0,0-1.75-.36H733.11A5.92,5.92,0,0,1,730.82,11.45Z"/></g></g></svg>